<?xml version="1.0" encoding="utf-8"?>
<!-- Svg Vector Icons : http://www.onlinewebfonts.com/icon -->
<!DOCTYPE svg PUBLIC "-//W3C//DTD SVG 1.1//EN" "http://www.w3.org/Graphics/SVG/1.1/DTD/svg11.dtd">
<svg version="1.1" xmlns="http://www.w3.org/2000/svg" xmlns:xlink="http://www.w3.org/1999/xlink" x="0px" y="0px" viewBox="0 0 256 256" enable-background="new 0 0 256 256" xml:space="preserve">
<metadata> Svg Vector Icons : http://www.onlinewebfonts.com/icon </metadata>
<g><g><g><path fill="#000000" d="M40.6,11c-2.4,1.2-4.3,3.3-6,6.5c-1.2,2.3-1.3,2.8-1.4,9.9L33,34.9h-2.9c-3.7,0-5.1,0.5-6.2,2.4c-1.2,1.9-0.9,4.2,0.7,5.9c1,1,1.7,1.2,4.7,1.4l3.5,0.2l0.2,7.6c0.2,6.3,0.4,7.9,1.1,9.2c1.6,3,3.5,5,5.9,6.2l2.4,1.2h78.6c76.4,0,78.7,0,80.6-0.9c2.6-1.2,5.9-4.6,7.2-7.3c0.8-1.8,1-3.2,1.2-8.5c0.2-6.3,0.2-6.4,1.2-6c4.3,1.2,8.3,4.7,10.2,8.7c2.8,5.9,2.8,18.1,0.1,24c-1.9,4.2-6.1,7.6-11.2,9c-1,0.3-16.8,2.6-35,5.1c-18.3,2.5-34.3,4.8-35.7,5.1c-7.9,1.6-16,7.6-19.8,14.7c-3,5.5-3.3,8.1-3.3,24.8c0,16.7,0.1,17.1,3.1,18.4c2,0.9,4.3,0.2,5.7-1.5c0.9-1.2,0.9-1.8,0.9-15.6c0-8.3,0.2-15.5,0.5-17.1c1.2-6.6,5.5-11.3,12.4-13.5c0.9-0.3,17.3-2.7,36.5-5.4c21.7-3,35.9-5.2,37.5-5.8c9-3.1,15.9-10,18.8-18.5c1-3.1,1.1-4.2,1.1-11.5c0-7.1-0.1-8.5-1-11.3c-2.8-8.7-10-16.1-18.5-19l-3-1l-0.2-7.3c-0.2-6.7-0.3-7.5-1.5-9.8c-1.8-3.6-4.1-6.2-6.9-7.6l-2.4-1.2h-78.4H42.5L40.6,11z M199,20.6c0.9,0.9,0.9,1.5,0.9,19.4c0,17.7,0,18.4-0.9,18.9c-0.6,0.3-25.8,0.5-78.1,0.5c-65.4,0-77.3-0.1-77.7-0.6c-0.4-0.5-0.5-5.7-0.4-19.4c0.1-16.1,0.2-18.8,0.8-19.2c0.4-0.3,30-0.5,77.6-0.5C197.5,19.7,198.1,19.7,199,20.6z"/><path fill="#000000" d="M104.5,168c-0.9,0.4-1.8,1.3-2.2,1.9c-0.5,0.9-0.6,9.3-0.6,37.1v35.9l1.6,1.6l1.6,1.6h16.2c17.6,0,18.2-0.1,19.3-2.5c0.4-0.9,0.6-10.5,0.6-37c0-32,0-35.9-0.7-36.9c-1.5-2.3-2.6-2.4-18.9-2.4C107.8,167.2,105.9,167.3,104.5,168z M131.3,206.8v29.5l-9.8-0.1l-9.8-0.1l-0.1-29.4l-0.1-29.4h9.9h9.9V206.8z"/></g></g></g>
</svg>