<?xml version="1.0" encoding="utf-8"?>
<!-- Svg Vector Icons : http://www.onlinewebfonts.com/icon -->
<!DOCTYPE svg PUBLIC "-//W3C//DTD SVG 1.1//EN" "http://www.w3.org/Graphics/SVG/1.1/DTD/svg11.dtd">
<svg version="1.1" xmlns="http://www.w3.org/2000/svg" xmlns:xlink="http://www.w3.org/1999/xlink" x="0px" y="0px" viewBox="0 0 256 256" enable-background="new 0 0 256 256" xml:space="preserve">
<metadata> Svg Vector Icons : http://www.onlinewebfonts.com/icon </metadata>
<g><g><g><path fill="#000000" d="M118.7,4.6c-13.5,2.6-23.2,7.8-32.7,17.3c-9.6,9.7-15.5,21.9-17,35.3c-0.5,4.1-0.8,5.3-2.1,6.7c-6.9,8.2-4.8,19.7,4.8,25.8l2.7,1.8l0.3,10.7c0.2,8.2,0.6,11.5,1.3,14.5c2.8,9.9,7.9,18.5,15.3,25.5c7.3,7,14.2,11,23.5,13.7c3.7,1.1,5.7,1.3,13,1.3c10,0,14.1-0.9,22.5-5c6.2-3,11-6.6,16.4-12.3c5.2-5.5,9-11.9,11.4-18.9c2.4-7.2,3-11,3-21v-8.4l2.8-1.8c3.5-2.3,5.9-5,7.7-8.8c2.4-5.3,1.2-12.3-2.9-17.1c-1.1-1.3-1.5-2.7-2.1-6.9c-2.5-20.9-15-38-34.8-47.9C143.3,4.9,128.1,2.7,118.7,4.6z M137.3,16.5l1.9,0.4l0.3,9.1c0.3,9.9,0.6,11.1,3.3,12.5c2.1,1.1,3.5,1.1,5.6-0.1c2.5-1.3,3.3-3.7,3.3-10.5c0-3.2,0.2-5.8,0.5-5.8c0.6,0,6.2,4.2,8.8,6.4c6.5,5.9,11.8,16.3,13.7,26.7l0.3,1.8h-47.2H80.8l0.3-1.8c2.4-13.5,9.3-24.5,19.9-31.6c1.3-0.9,2.4-1.6,2.7-1.6c0.2,0,0.4,2.6,0.4,5.8c0,3.8,0.3,6.5,0.8,7.8c0.8,1.9,3.3,3.6,5.3,3.6c2.1,0,4.5-1.7,5.3-3.6c0.6-1.4,0.8-4.3,0.8-10.3c0-6.4,0.2-8.4,0.7-8.7C120.1,15.6,132.1,15.4,137.3,16.5z M178.4,69.7c2.2,1.1,3.2,3.7,2.6,7c-0.8,4.2,2.7,3.9-53,3.9c-55.8,0-52.3,0.3-53-3.9c-0.6-3.3,0.3-5.9,2.6-7c1.8-0.9,5.4-1,50.5-1C173,68.7,176.6,68.8,178.4,69.7z M169.3,101.8c-0.4,11-1.4,15.6-4.9,22.5c-3.4,6.5-10.6,13.7-17.1,16.9c-7,3.4-10.7,4.3-19.1,4.3c-8.7,0.1-13.2-0.9-19.7-4.3c-7.7-3.9-13.3-9.5-17.2-17c-3.4-6.6-4.4-11.4-4.8-22.3l-0.3-9.3h41.8h41.8L169.3,101.8z"/><path fill="#000000" d="M83.9,158.1c-10.2,1.1-22.4,5.1-31.5,10.2c-9.8,5.5-21,15.6-27.4,24.5c-6.5,9.2-11.7,21-14.1,32.3c-0.7,3.5-1,7.2-1,14.3v9.5l1.6,1.6l1.5,1.6h114.9h114.9l1.5-1.6c1.5-1.5,1.6-1.7,1.7-9c0.6-21.9-8.2-43-24.2-59.1c-14-14-31.6-22.4-50.9-24.3c-8.5-0.8-8.7-0.8-12.9,6.4c-10.9,18.8-38.1,22.6-54,7.5c-2.4-2.3-4.8-5.3-6.4-8c-1.4-2.3-2.9-4.7-3.5-5.2C92.7,157.7,89.9,157.5,83.9,158.1z M88.8,173.4c4.3,7.8,15.1,26.5,24.6,42.6c9.9,16.9,11.3,18.6,14.4,18.6c3.2,0,4.4-1.4,11.7-13.8c12.7-21.4,18.2-30.8,23.7-40.7c2.9-5.3,5.5-9.9,5.8-10.2c0.8-0.8,11.4,1.2,17.8,3.3c21.9,7.3,38.7,24.9,44.9,46.9c1.4,4.8,2.8,14,2.8,17.8v2.7H127.8H21.2l0.4-5.4c2.3-32.8,25.8-59,58.3-64.7C86.9,169.4,86.5,169.2,88.8,173.4z M135.9,203.8c-4.3,7.2-7.8,13.1-8,13.1c-0.4,0-15.5-25.7-15.3-26c0.1-0.1,1.6,0.2,3.4,0.7c5.2,1.4,15.2,1.7,20.8,0.6c2.6-0.6,5-1.2,5.5-1.4c0.4-0.3,0.9-0.4,1-0.3C143.4,190.6,140.1,196.6,135.9,203.8z"/></g></g></g>
</svg>